<?xml version="1.0" encoding="UTF-8"?>
<svg version="1.1" xmlns="http://www.w3.org/2000/svg" width="1024" height="1024">
<path d="M0 0 C337.92 0 675.84 0 1024 0 C1024 337.92 1024 675.84 1024 1024 C686.08 1024 348.16 1024 0 1024 C0 686.08 0 348.16 0 0 Z " fill="#FAF7F1" transform="translate(0,0)"/>
<path d="M0 0 C2.07176131 0.949337 4.13775746 1.91131209 6.19921875 2.8828125 C8.61450195 3.98885147 11.03098767 5.09186389 13.44921875 6.19140625 C14.1033223 6.49017166 14.75742584 6.78893707 15.43135071 7.09675598 C24.45255965 11.20241832 33.5824608 15.05796601 42.69921875 18.9453125 C46.32197011 20.49265825 49.94423392 22.04114312 53.56640625 23.58984375 C54.44811493 23.96668304 55.32982361 24.34352234 56.23825073 24.73178101 C65.49527492 28.69071048 74.73224907 32.69545086 83.96166992 36.71826172 C89.2239684 39.00769606 94.49148663 41.27236695 99.8046875 43.44140625 C100.69551025 43.80669434 101.58633301 44.17198242 102.50415039 44.54833984 C104.10249762 45.19975465 105.70425255 45.84291263 107.31030273 46.47509766 C111.26133313 48.08475957 114.26015687 49.58794894 116.88671875 53.0078125 C117.42491193 56.77516473 117.56747367 58.97188109 115.44921875 62.1953125 C113.06226982 63.88364223 110.89514305 64.96094577 108.2265625 66.12109375 C107.41437256 66.47598877 106.60218262 66.83088379 105.76538086 67.1965332 C105.14542236 67.46425537 104.52546387 67.73197754 103.88671875 68.0078125 C103.76234554 73.53955041 103.67201733 79.07045969 103.61206055 84.60327148 C103.58704531 86.4819966 103.55302169 88.36062566 103.50952148 90.23901367 C102.80844804 103.48475987 102.80844804 103.48475987 107.74487305 115.39672852 C109.86300693 118.38530357 109.49968286 121.27452693 109.3203125 124.76953125 C108.69180229 128.01400288 107.29964721 129.80778949 104.88671875 132.0078125 C101.20258876 133.84987749 96.91688889 133.3695758 92.88671875 133.0078125 C89.20048864 131.39508683 88.13316875 130.3774875 85.88671875 127.0078125 C85.07490236 122.30682922 85.46710009 118.43120411 87.89453125 114.33203125 C91.29014502 107.03304838 90.30420465 98.80845967 90.13671875 90.9453125 C90.11662222 89.30015196 90.09837702 87.65496771 90.08203125 86.00976562 C90.03828634 82.00852181 89.96943535 78.00843265 89.88671875 74.0078125 C88.81188232 74.50764648 88.81188232 74.50764648 87.71533203 75.01757812 C84.48259867 76.51824643 81.24720853 78.01309702 78.01171875 79.5078125 C76.88378906 80.03246094 75.75585938 80.55710937 74.59375 81.09765625 C72.97919922 81.84208984 72.97919922 81.84208984 71.33203125 82.6015625 C70.33703613 83.06240234 69.34204102 83.52324219 68.31689453 83.99804688 C65.88671875 85.0078125 65.88671875 85.0078125 63.88671875 85.0078125 C63.79701099 94.50401994 64.38202712 100.55192104 70.046875 108.40625 C79.2047924 121.35566187 83.28709181 139.32278254 83.26171875 155.0078125 C83.26228271 155.90411377 83.26284668 156.80041504 83.26342773 157.72387695 C83.1154845 166.90363362 82.05241038 177.67642924 77.88671875 186.0078125 C78.94246094 185.57210937 79.99820312 185.13640625 81.0859375 184.6875 C103.51563808 175.59902847 139.35615182 161.7089136 163.88671875 167.0078125 C167.14976356 169.61598607 168.71356589 171.10772689 169.51313114 175.26403809 C169.51371745 176.50657349 169.51430376 177.74910889 169.51490784 179.02929688 C169.52200222 179.72424507 169.52909661 180.41919327 169.53640598 181.1352005 C169.55397237 183.45788815 169.53589045 185.77889923 169.51782227 188.1015625 C169.52296166 189.76905071 169.53024309 191.4365335 169.539505 193.10400391 C169.55802484 197.62889711 169.54507692 202.15320135 169.52541471 206.67807007 C169.50903164 211.41364225 169.51784062 216.14917704 169.52293396 220.88476562 C169.5274553 228.83733531 169.51158258 236.78966982 169.48364258 244.7421875 C169.45159047 253.93600629 169.45160627 263.12940091 169.46885735 272.32324982 C169.4847219 281.16794655 169.47798934 290.0124878 169.46092033 298.85717773 C169.45404827 302.62105448 169.45508388 306.38480664 169.46246529 310.14868164 C169.47012724 314.58114127 169.45800511 319.01311827 169.43061638 323.44549561 C169.42373049 325.07206795 169.42363679 326.69868535 169.43083191 328.32525635 C169.43952389 330.54615193 169.42357752 332.76555713 169.40138245 334.98632812 C169.39857553 336.22886353 169.3957686 337.47139893 169.39287663 338.75158691 C168.79381954 342.6054537 167.59743675 344.25717046 164.88671875 347.0078125 C162.19696452 348.35268962 159.94563658 348.25714768 156.9375 348.40234375 C155.70854004 348.4684082 154.47958008 348.53447266 153.21337891 348.60253906 C152.55911926 348.63738403 151.90485962 348.672229 151.23077393 348.70812988 C114.34701451 350.74485363 79.15237477 359.99615624 45.88671875 376.0078125 C45.18015137 376.34474121 44.47358398 376.68166992 43.74560547 377.02880859 C29.02907743 384.13998635 14.77874259 393.19354275 1.95996094 403.31982422 C-5.19331709 408.93432989 -5.19331709 408.93432989 -9.87890625 409.30859375 C-13.68929576 407.77615449 -16.69287605 405.74623836 -19.86328125 403.1953125 C-64.00599512 369.49145523 -117.81668329 350.83671111 -173.24365234 348.81518555 C-174.88261475 348.73844604 -174.88261475 348.73844604 -176.5546875 348.66015625 C-177.98856812 348.61362915 -177.98856812 348.61362915 -179.45141602 348.56616211 C-183.00049409 347.82171182 -184.56777894 346.58710586 -187.11328125 344.0078125 C-187.73690033 340.82498932 -187.73690033 340.82498932 -187.73474121 336.98596191 C-187.74113003 336.27891192 -187.74751885 335.57186193 -187.75410128 334.84338617 C-187.76936407 332.47379118 -187.74888386 330.10586491 -187.72851562 327.73632812 C-187.73201647 326.03781073 -187.73767464 324.3392966 -187.74533081 322.64079285 C-187.75959382 318.02705465 -187.7425026 313.41391136 -187.71904564 308.80023003 C-187.69895848 303.97477296 -187.70481508 299.14934112 -187.70715332 294.32385254 C-187.70709973 286.21987072 -187.68732899 278.11612189 -187.65527344 270.01220703 C-187.61837962 260.63950812 -187.60959764 251.26711448 -187.61657095 241.89435244 C-187.6228736 232.88254449 -187.61212607 223.87084136 -187.59260559 214.85905457 C-187.58442534 211.02180998 -187.5817232 207.18461891 -187.58329773 203.34736633 C-187.58417591 198.82962826 -187.56997844 194.31218083 -187.5440712 189.79451942 C-187.53690174 188.1352765 -187.53482952 186.47600268 -187.53818893 184.81674767 C-187.5418966 182.55406958 -187.52718213 180.29224303 -187.50769043 178.02966309 C-187.50396172 176.76278404 -187.500233 175.495905 -187.4963913 174.19063568 C-187.08839414 170.80105401 -186.52002534 169.38588461 -184.11328125 167.0078125 C-181.99975586 166.57324219 -181.99975586 166.57324219 -179.578125 166.6796875 C-178.68851074 166.71642578 -177.79889648 166.75316406 -176.88232422 166.79101562 C-172.45468826 167.13766884 -168.07195477 167.62740582 -163.67578125 168.2578125 C-162.71913574 168.39348633 -161.76249023 168.52916016 -160.77685547 168.66894531 C-138.3517961 171.95899376 -115.623246 177.15003015 -95.11328125 187.0078125 C-95.37882812 186.37617188 -95.644375 185.74453125 -95.91796875 185.09375 C-104.81210687 162.56626148 -102.36275842 137.87237996 -93.03271484 115.92919922 C-91.85359183 113.46512642 -90.45586355 111.20845876 -88.93286133 108.94360352 C-85.10078928 102.73381418 -83.57325509 98.8406738 -83.88671875 91.5703125 C-83.90307373 90.83876953 -83.91942871 90.10722656 -83.9362793 89.35351562 C-83.97850883 87.57113826 -84.04350716 85.78932421 -84.11328125 84.0078125 C-84.68069031 83.76391281 -85.24809937 83.52001312 -85.83270264 83.26872253 C-91.7402152 80.72814335 -97.6444631 78.18009177 -103.546875 75.62768555 C-105.74982267 74.67622103 -107.95359437 73.72666205 -110.15820312 72.77905273 C-113.32771098 71.41630713 -116.49418794 70.04672635 -119.66015625 68.67578125 C-120.64570496 68.25378952 -121.63125366 67.83179779 -122.64666748 67.39701843 C-124.02764618 66.79673576 -124.02764618 66.79673576 -125.43652344 66.18432617 C-126.24482605 65.83569016 -127.05312866 65.48705414 -127.88592529 65.12785339 C-130.24920223 63.93946372 -132.16874131 62.80822334 -134.11328125 61.0078125 C-134.79669834 55.62590295 -134.79669834 55.62590295 -134.11328125 53.0078125 C-131.04654034 49.32660109 -127.52230518 47.56210072 -123.19921875 45.72265625 C-122.51187653 45.42146378 -121.8245343 45.1202713 -121.11636353 44.80995178 C-118.91073564 43.84622004 -116.6996769 42.8957225 -114.48828125 41.9453125 C-113.08817879 41.33481591 -111.68843636 40.72349296 -110.2890625 40.11132812 C-101.45652044 36.25997327 -92.58076577 32.51154411 -83.703125 28.765625 C-69.85961677 22.92333465 -56.07734764 16.94339824 -42.30078125 10.9453125 C-38.74667908 9.39867577 -35.19241161 7.85242234 -31.63777161 6.30702209 C-29.4560329 5.35843444 -27.27460848 4.4091235 -25.09355164 3.45896912 C-24.11674942 3.03414749 -23.1399472 2.60932587 -22.13354492 2.17163086 C-20.85552254 1.61517128 -20.85552254 1.61517128 -19.55168152 1.04747009 C-12.29011961 -2.04863274 -7.54511735 -3.21121068 0 0 Z " fill="#012743" transform="translate(521.11328125,211.9921875)"/>
<path d="M0 0 C13.51786796 1.126489 13.51786796 1.126489 18.15625 2.19921875 C19.18758057 2.43543945 20.21891113 2.67166016 21.28149414 2.91503906 C22.34360107 3.16995117 23.40570801 3.42486328 24.5 3.6875 C25.6336499 3.9565918 26.7672998 4.22568359 27.93530273 4.50292969 C42.78597791 8.08775572 57.03146969 12.45425818 71.25 18.0625 C72.29808838 18.4740332 73.34617676 18.88556641 74.42602539 19.30957031 C83.03927203 22.7968272 89.97497163 26.33315688 96.125 33.4375 C101.47780554 39.46166824 107.08529533 45.21215985 112.78265381 50.9079895 C113.74920579 51.87432036 114.71460885 52.84180199 115.67877197 53.81051636 C120.69176206 58.84562995 125.75254062 63.7389487 131.14599609 68.36425781 C134.30933151 71.15519109 137.23891881 74.17317564 140.1875 77.1875 C141.36600236 78.39176198 142.5469421 79.59364419 143.73046875 80.79296875 C144.23989014 81.3139917 144.74931152 81.83501465 145.27416992 82.37182617 C147.01394032 84.14338054 147.01394032 84.14338054 149.5723877 85.45375061 C153.31140539 89.37549359 152.66202902 93.14035188 152.56762695 98.36816406 C152.56872215 99.94911865 152.56872215 99.94911865 152.56983948 101.56201172 C152.56635499 105.04707229 152.52745077 108.5307978 152.48828125 112.015625 C152.47895625 114.43128733 152.47183866 116.84695911 152.46684265 119.26263428 C152.44774853 125.62180674 152.39862574 131.98040854 152.34332275 138.33935547 C152.29218303 144.82772094 152.26933982 151.3161786 152.24414062 157.8046875 C152.19051034 170.53670186 152.10612801 183.26832058 152 196 C147.41486255 193.39934775 142.9671206 190.71542522 138.5625 187.8125 C109.69396865 169.14312347 77.23509076 156.97650134 43.625 150 C42.35825439 149.73364746 41.09150879 149.46729492 39.78637695 149.19287109 C26.54897614 146.61065572 13.52392362 145.50265818 0 144 C0 96.48 0 48.96 0 0 Z " fill="#FAF7F1" transform="translate(351,398)"/>
<path d="M0 0 C0 47.52 0 95.04 0 144 C-16.83 145.98 -16.83 145.98 -34 148 C-42.76684071 149.81655258 -51.37549598 151.67642938 -60 154 C-60.8878418 154.23444824 -61.77568359 154.46889648 -62.69042969 154.71044922 C-93.34650782 162.92210569 -122.51453548 177.04612105 -148.56640625 195.07421875 C-150 196 -150 196 -151 196 C-151.39552786 182.19593507 -151.69675638 168.39323716 -151.88080692 154.5846405 C-151.96919011 148.1709145 -152.08884572 141.76108978 -152.2824707 135.34960938 C-152.46848759 129.15058717 -152.56908745 122.95529204 -152.61291313 116.75369263 C-152.64410057 114.3994785 -152.70501101 112.04544744 -152.79741096 109.69284058 C-153.52635346 90.3469559 -153.52635346 90.3469559 -147.3835144 83.16259766 C-143.91003641 79.67506821 -140.15953282 76.67067315 -136.21174431 73.74085999 C-133.16410242 71.34206651 -130.50959115 68.6326409 -127.82252598 65.84259033 C-125.97623974 63.97597816 -124.05189992 62.26154742 -122.0546875 60.55859375 C-116.6676909 55.92103506 -111.7808418 50.79286797 -106.828125 45.70117188 C-106.10367188 44.96576172 -105.37921875 44.23035156 -104.6328125 43.47265625 C-103.98199707 42.80500244 -103.33118164 42.13734863 -102.66064453 41.44946289 C-101 40 -101 40 -99 40 C-98.62294922 39.17048828 -98.62294922 39.17048828 -98.23828125 38.32421875 C-91.19774853 25.10933872 -79.40688955 20.82070596 -66 16 C-64.25541504 15.36698975 -64.25541504 15.36698975 -62.47558594 14.72119141 C-42.5706082 7.5882681 -21.34910283 0 0 0 Z " fill="#FAF7F1" transform="translate(672,398)"/>
<path d="M0 0 C10.58113962 9.82534394 17.49717679 24.42649955 18.2109375 38.828125 C18.39830567 48.61785321 17.70130276 57.09196389 13.875 66.25 C13.51277344 67.12914062 13.15054688 68.00828125 12.77734375 68.9140625 C6.90472314 81.77410628 -3.94186825 91.35366135 -13.81542969 101.14624023 C-16.12494657 103.43744699 -18.42630681 105.73660866 -20.7265625 108.03710938 C-22.2130704 109.51870215 -23.70003421 110.99983767 -25.1875 112.48046875 C-25.86482178 113.1566777 -26.54214355 113.83288666 -27.23999023 114.52958679 C-31.17763089 118.42883169 -35.2181723 122.15016972 -39.42822266 125.75424194 C-41.51058321 127.5899027 -43.33794525 129.56537248 -45.125 131.6875 C-45.7025 132.36683594 -46.28 133.04617188 -46.875 133.74609375 C-47.2875 134.24238281 -47.7 134.73867188 -48.125 135.25 C-51.37801796 133.8568597 -53.15886216 132.30039845 -55.375 129.5625 C-58.31633804 126.0852402 -61.42192934 123.16810441 -64.890625 120.23046875 C-67.58144626 117.84542263 -70.10317536 115.31026314 -72.625 112.75 C-75.63703633 109.69657691 -78.6605123 106.70925619 -81.9375 103.9375 C-98.04559421 90.05006898 -114.28470908 73.17262027 -116.34643555 50.8527832 C-117.14920249 33.17992894 -114.42061674 18.16475994 -102.61328125 4.30078125 C-74.30818124 -25.29642033 -30.94138902 -25.4811439 0 0 Z " fill="#FD6706" transform="translate(561.125,327.75)"/>
<path d="M0 0 C0.80308594 0.44730469 1.60617187 0.89460937 2.43359375 1.35546875 C11.20712187 6.72907464 15.98603333 13.64831169 20 23 C20.32226562 23.71285156 20.64453125 24.42570313 20.9765625 25.16015625 C24.1886233 33.6706164 23.8079017 44.02127427 23 53 C22 54 22 54 19.41209412 54.12025452 C18.25959671 54.11803391 17.1070993 54.11581329 15.91967773 54.11352539 C13.96776772 54.11341209 13.96776772 54.11341209 11.97642517 54.11329651 C10.54548098 54.10818909 9.11453718 54.10297308 7.68359375 54.09765625 C6.2277074 54.09579203 4.77182043 54.09436815 3.31593323 54.09336853 C-0.52279379 54.08954365 -4.36148319 54.07971364 -8.20019531 54.06866455 C-12.11457816 54.05844978 -16.02896706 54.05387077 -19.94335938 54.04882812 C-27.62892343 54.03809134 -35.31445645 54.02101529 -43 54 C-42.53208659 55.43429322 -42.06151841 56.86772053 -41.58984375 58.30078125 C-41.19720337 59.49828003 -41.19720337 59.49828003 -40.79663086 60.7199707 C-38.75846229 66.55339278 -35.97386605 69.3349852 -30.6875 72.375 C-21.3390932 76.72389254 -10.88555326 76.37189487 -1.2265625 72.99609375 C2.73009493 71.22601016 6.90491084 69.09508916 10 66 C11.65 66 13.3 66 15 66 C15 72.93 15 79.86 15 87 C3.83002133 93.07778251 -6.65262618 95.57911309 -19.375 95.5 C-20.46627197 95.49355469 -21.55754395 95.48710938 -22.68188477 95.48046875 C-37.32216594 95.14949192 -47.74192305 90.53334618 -57.9921875 79.94140625 C-69.00388281 67.06292139 -70.2218034 50.21107868 -69 34 C-67.00066926 22.46169367 -61.33236628 11.91026066 -52.17578125 4.49609375 C-48.34083578 1.85913843 -44.28851347 -0.20527728 -40 -2 C-39.14019531 -2.36738281 -38.28039062 -2.73476563 -37.39453125 -3.11328125 C-26.05185684 -6.07621231 -10.29347211 -5.86382979 0 0 Z " fill="#012642" transform="translate(329,680)"/>
<path d="M0 0 C0.96873047 -0.01611328 1.93746094 -0.03222656 2.93554688 -0.04882812 C14.82681967 -0.05676093 25.93482192 2.90909838 34.7265625 11.24609375 C43.48129804 21.39786156 44.28515478 33.91452594 44.11328125 46.765625 C44.10834319 48.20196068 44.10505356 49.63830287 44.10331726 51.074646 C44.09575261 54.05307277 44.07540831 57.03100586 44.04418945 60.00927734 C44.00418438 63.8325895 43.98650314 67.65558607 43.97688007 71.47908401 C43.96694715 75.13714037 43.94707963 78.79511974 43.92578125 82.453125 C43.92068763 83.49918789 43.92068763 83.49918789 43.9154911 84.56638336 C43.90397656 86.52378769 43.88445161 88.48114003 43.86450195 90.43847656 C43.85465775 91.55176331 43.84481354 92.66505005 43.83467102 93.81207275 C43.6875 96.3125 43.6875 96.3125 42.6875 97.3125 C40.91890807 97.41196453 39.14638549 97.44330217 37.375 97.4453125 C36.29992187 97.44660156 35.22484375 97.44789063 34.1171875 97.44921875 C32.98539062 97.44535156 31.85359375 97.44148437 30.6875 97.4375 C29.55570312 97.44136719 28.42390625 97.44523438 27.2578125 97.44921875 C26.18273437 97.44792969 25.10765625 97.44664062 24 97.4453125 C23.00613281 97.44418457 22.01226562 97.44305664 20.98828125 97.44189453 C18.6875 97.3125 18.6875 97.3125 17.6875 96.3125 C17.61544489 94.62641034 17.60363932 92.93749341 17.625 91.25 C17.63402344 90.33089844 17.64304687 89.41179687 17.65234375 88.46484375 C17.66394531 87.75457031 17.67554688 87.04429687 17.6875 86.3125 C17.24921875 86.83199219 16.8109375 87.35148438 16.359375 87.88671875 C9.98574281 94.89512325 3.07342321 99.02496004 -6.51171875 99.71875 C-17.07010485 100.10980134 -27.15535554 99.16980357 -35.55078125 92.13671875 C-42.0878626 85.3677232 -43.03615111 77.98857695 -42.90234375 68.93334961 C-42.48437643 60.34430129 -39.83017042 54.44128558 -33.625 48.4375 C-23.68132147 40.45242482 -11.62524743 39.42578514 0.6875 40.3125 C6.40245425 41.0370809 12.04729 42.15270161 17.6875 43.3125 C17.43753097 33.0540613 17.43753097 33.0540613 12.6875 24.3125 C4.71256918 19.55821432 -6.13157645 20.19051655 -14.9921875 22.109375 C-19.58091341 23.48705252 -23.99607005 25.12352466 -28.375 27.0625 C-31.3125 28.3125 -31.3125 28.3125 -35.3125 28.3125 C-35.3125 22.0425 -35.3125 15.7725 -35.3125 9.3125 C-32.8375 8.19875 -30.3625 7.085 -27.8125 5.9375 C-26.6687793 5.41663818 -26.6687793 5.41663818 -25.50195312 4.88525391 C-16.89936007 1.07043974 -9.40700262 -0.03092374 0 0 Z " fill="#022642" transform="translate(402.3125,675.6875)"/>
<path d="M0 0 C9.1748602 4.59381039 14.486507 10.92195764 18.25337219 20.53166199 C19.28166597 24.14322916 19.43477686 27.15144208 19.43041992 30.90356445 C19.43231827 31.58558426 19.43421661 32.26760406 19.43617249 32.97029114 C19.43985225 35.20557457 19.42922084 37.44052714 19.41796875 39.67578125 C19.4167758 41.23422711 19.41632403 42.7926737 19.4165802 44.35112 C19.41502047 47.60660341 19.40676625 50.86197606 19.39331055 54.11743164 C19.37625067 58.29853165 19.37249849 62.47951093 19.37325573 66.66064167 C19.37298453 69.87327739 19.36751262 73.08588651 19.36025429 76.29851341 C19.35706504 77.84115587 19.35509962 79.38380134 19.35436058 80.92644691 C19.35220371 83.07382027 19.34347591 85.22106275 19.33276367 87.3684082 C19.32895187 88.59163284 19.32514008 89.81485748 19.32121277 91.07514954 C19.1875 93.8125 19.1875 93.8125 18.1875 94.8125 C16.41890807 94.91196453 14.64638549 94.94330217 12.875 94.9453125 C11.79992187 94.94660156 10.72484375 94.94789063 9.6171875 94.94921875 C8.48539063 94.94535156 7.35359375 94.94148437 6.1875 94.9375 C5.05570313 94.94136719 3.92390625 94.94523438 2.7578125 94.94921875 C1.68273437 94.94792969 0.60765625 94.94664062 -0.5 94.9453125 C-1.49386719 94.94418457 -2.48773437 94.94305664 -3.51171875 94.94189453 C-5.8125 94.8125 -5.8125 94.8125 -6.8125 93.8125 C-6.91495395 91.98329517 -6.9482136 90.15017679 -6.9543457 88.31811523 C-6.96489738 86.55509315 -6.96489738 86.55509315 -6.97566223 84.75645447 C-6.97982651 83.47428543 -6.98399078 82.19211639 -6.98828125 80.87109375 C-7.0055409 78.86710484 -7.02282438 76.86311581 -7.04148388 74.85913944 C-7.08706511 69.90474027 -7.12474297 64.95044661 -7.13842773 59.99584961 C-7.14658917 57.22294981 -7.16523855 54.45049794 -7.19535828 51.67774963 C-7.22342876 49.06567833 -7.23642972 46.45339043 -7.23249817 43.84117126 C-7.33161796 36.64404513 -8.088955 31.98909516 -11.8125 25.8125 C-11.8125 25.1525 -11.8125 24.4925 -11.8125 23.8125 C-17.63321303 20.55290071 -24.15078645 18.7954445 -30.8125 19.8125 C-36.71677433 21.73685608 -40.30677515 24.76013184 -43.8125 29.8125 C-45.62422438 33.58342018 -46.07392968 36.61223729 -46.11547852 40.78027344 C-46.13212051 41.95789246 -46.14876251 43.13551147 -46.16590881 44.34881592 C-46.17432297 45.61042542 -46.18273712 46.87203491 -46.19140625 48.171875 C-46.21736472 50.15776321 -46.24332798 52.14365137 -46.2695837 54.12953568 C-46.30391702 56.90220588 -46.32954119 59.67493 -46.35510254 62.44769287 C-46.4009189 67.31729779 -46.45590448 72.1867877 -46.51780701 77.05621338 C-46.5498735 79.64807194 -46.57672888 82.24000089 -46.59803772 84.83197021 C-46.61152756 85.99698059 -46.6250174 87.16199097 -46.63891602 88.36230469 C-46.64842789 89.39313171 -46.65793976 90.42395874 -46.66773987 91.48602295 C-46.8125 93.8125 -46.8125 93.8125 -47.8125 94.8125 C-49.58109193 94.91196453 -51.35361451 94.94330217 -53.125 94.9453125 C-54.20007813 94.94660156 -55.27515625 94.94789063 -56.3828125 94.94921875 C-57.51460937 94.94535156 -58.64640625 94.94148437 -59.8125 94.9375 C-60.94429687 94.94136719 -62.07609375 94.94523438 -63.2421875 94.94921875 C-64.31726563 94.94792969 -65.39234375 94.94664062 -66.5 94.9453125 C-67.49386719 94.94418457 -68.48773437 94.94305664 -69.51171875 94.94189453 C-71.8125 94.8125 -71.8125 94.8125 -72.8125 93.8125 C-72.91308243 90.89592371 -72.94865211 88.00299054 -72.94189453 85.0859375 C-72.94364685 84.17056213 -72.94539917 83.25518677 -72.94720459 82.31207275 C-72.95162461 79.27052951 -72.94868459 76.22904389 -72.9453125 73.1875 C-72.9459855 71.0838215 -72.94695548 68.98014308 -72.94821167 66.87646484 C-72.94968885 62.46125551 -72.94753345 58.04606637 -72.94287109 53.63085938 C-72.9371738 47.95757439 -72.9404527 42.28433671 -72.94644356 36.61105347 C-72.95004864 32.26521444 -72.94891083 27.91938672 -72.94631577 23.57354736 C-72.94564635 21.4810587 -72.94647543 19.38856903 -72.94879532 17.29608154 C-72.95132098 14.37704734 -72.94748248 11.45809088 -72.94189453 8.5390625 C-72.94391876 7.6652594 -72.94594299 6.7914563 -72.94802856 5.89117432 C-72.92676236 -0.07323764 -72.92676236 -0.07323764 -71.8125 -1.1875 C-68.00661856 -1.43958722 -64.18824544 -1.37272344 -60.375 -1.375 C-58.76141602 -1.39336914 -58.76141602 -1.39336914 -57.11523438 -1.41210938 C-56.08849609 -1.41404297 -55.06175781 -1.41597656 -54.00390625 -1.41796875 C-52.58380249 -1.42413208 -52.58380249 -1.42413208 -51.13500977 -1.43041992 C-48.8125 -1.1875 -48.8125 -1.1875 -46.8125 0.8125 C-46.3984375 3.4140625 -46.3984375 3.4140625 -46.1875 6.4375 C-46.11273437 7.44039062 -46.03796875 8.44328125 -45.9609375 9.4765625 C-45.88746094 10.63285156 -45.88746094 10.63285156 -45.8125 11.8125 C-45.22855469 11.03326172 -45.22855469 11.03326172 -44.6328125 10.23828125 C-34.10384822 -2.88653367 -15.47657197 -6.21791745 0 0 Z " fill="#012641" transform="translate(608.8125,678.1875)"/>
<path d="M0 0 C1.60101562 -0.05607422 1.60101562 -0.05607422 3.234375 -0.11328125 C4.76964844 -0.13068359 4.76964844 -0.13068359 6.3359375 -0.1484375 C7.74818604 -0.1781665 7.74818604 -0.1781665 9.18896484 -0.20849609 C11.625 0.375 11.625 0.375 13.24536133 2.35620117 C15.02175031 6.24313265 16.53868508 10.1802645 17.98828125 14.19921875 C18.30274704 15.05949173 18.61721283 15.91976471 18.94120789 16.80610657 C19.60672728 18.6300186 20.26974212 20.45484619 20.93041992 22.28051758 C21.91853803 25.01011898 22.91458325 27.73671536 23.91210938 30.46289062 C27.06184531 39.09775682 30.14856468 47.75409137 33.10546875 56.45703125 C33.49029167 57.57110603 33.49029167 57.57110603 33.88288879 58.70768738 C35.03582185 62.14808666 35.625 64.70296766 35.625 68.375 C36.285 68.375 36.945 68.375 37.625 68.375 C37.7082251 67.14362305 37.7914502 65.91224609 37.87719727 64.64355469 C38.56763196 58.49593678 40.56248022 52.89662442 42.58984375 47.078125 C42.98321426 45.92632751 43.37658478 44.77453003 43.78187561 43.58782959 C45.03343823 39.93052012 46.29791279 36.27782363 47.5625 32.625 C48.40902408 30.15522915 49.25473554 27.68517961 50.09960938 25.21484375 C51.64879311 20.69658774 53.19952201 16.17889857 54.76147461 11.66503906 C55.07378525 10.76174866 55.38609589 9.85845825 55.70787048 8.92779541 C58.30712137 1.69287863 58.30712137 1.69287863 59.625 0.375 C61.40571246 0.28773777 63.1898314 0.26800959 64.97265625 0.27734375 C66.05224609 0.28056641 67.13183594 0.28378906 68.24414062 0.28710938 C69.94860352 0.29967773 69.94860352 0.29967773 71.6875 0.3125 C73.39776367 0.31926758 73.39776367 0.31926758 75.14257812 0.32617188 C77.97010351 0.33800253 80.7975264 0.3544859 83.625 0.375 C85.16898871 4.31350027 84.01048184 6.8110656 82.54223633 10.65527344 C82.30806503 11.27745255 82.07389374 11.89963165 81.83262634 12.54066467 C81.05108468 14.6093178 80.25409254 16.67165721 79.45703125 18.734375 C78.90044615 20.19862396 78.34485692 21.66325181 77.79020691 23.12823486 C76.31660242 27.01261374 74.83000725 30.891893 73.34051514 34.77020264 C71.87665108 38.58752871 70.42381563 42.40903981 68.97070312 46.23046875 C67.24465623 50.76920114 65.51671136 55.30715366 63.77835083 59.84118652 C60.91004236 67.32825479 58.07931611 74.82591889 55.32958984 82.35742188 C54.79671409 83.80876527 54.26365138 85.26004003 53.73039246 86.71124268 C52.97704696 88.76148846 52.22717477 90.81254468 51.49088478 92.86898041 C46.23992814 107.53472459 39.70494369 122.3419298 24.9375 129.375 C15.8162643 133.04113203 5.85058637 134.06523455 -3.375 130.375 C-3.375 124.105 -3.375 117.835 -3.375 111.375 C-0.07492239 110.5499806 1.69626738 110.32728778 4.9375 110.5 C9.50932351 110.51503889 12.67112145 109.85586497 16.625 107.375 C20.08156561 103.01850015 21.12366479 98.68594908 21.00268555 93.11181641 C20.17062189 87.08244756 17.57351936 81.48764806 15.3125 75.875 C14.74286811 74.42673429 14.17488333 72.97781985 13.60839844 71.52832031 C12.34535296 68.30292621 11.0738053 65.0810564 9.79638672 61.86132812 C6.0471335 52.40244769 2.35669853 42.92052186 -1.33285522 33.43823242 C-2.61226381 30.15765729 -3.90001359 26.88044733 -5.1887207 23.60351562 C-5.98545502 21.56390605 -6.78193485 19.52419705 -7.578125 17.484375 C-7.9473558 16.55135559 -8.31658661 15.61833618 -8.69700623 14.65704346 C-10.40464216 10.26182445 -11.98418821 6.12002703 -12.375 1.375 C-9.8739181 -1.1260819 -3.356551 0.04427106 0 0 Z " fill="#022742" transform="translate(765.375,676.625)"/>
<path d="M0 0 C1.12019531 -0.00128906 2.24039063 -0.00257813 3.39453125 -0.00390625 C4.57402344 -0.00003906 5.75351563 0.00382813 6.96875 0.0078125 C8.73798828 0.00201172 8.73798828 0.00201172 10.54296875 -0.00390625 C12.22326172 -0.00197266 12.22326172 -0.00197266 13.9375 0 C14.97326172 0.00112793 16.00902344 0.00225586 17.07617188 0.00341797 C19.46875 0.1328125 19.46875 0.1328125 20.46875 1.1328125 C20.5641419 2.51157275 20.59063622 3.89518166 20.58900452 5.27723694 C20.59037918 6.17051193 20.59175385 7.06378693 20.59317017 7.98413086 C20.58957489 8.97171387 20.58597961 9.95929687 20.58227539 10.97680664 C20.58242142 12.01083115 20.58256744 13.04485565 20.5827179 14.11021423 C20.58201827 17.54615336 20.57422358 20.98203903 20.56640625 24.41796875 C20.56454225 26.79308543 20.56311826 29.1682025 20.56211853 31.5433197 C20.55829197 37.80857394 20.5484605 44.07380517 20.53741455 50.33905029 C20.52540953 57.84884414 20.52079885 65.35864566 20.51496124 72.86844635 C20.50524882 84.28991776 20.48609322 95.71133863 20.46875 107.1328125 C37.95875 107.1328125 55.44875 107.1328125 73.46875 107.1328125 C73.46875 114.3928125 73.46875 121.6528125 73.46875 129.1328125 C47.06875 129.1328125 20.66875 129.1328125 -6.53125 129.1328125 C-6.57155303 97.07398784 -6.57155303 97.07398784 -6.58007812 83.68164062 C-6.58602115 74.41967213 -6.59302292 65.1577127 -6.60668945 55.89575195 C-6.61663619 49.15154099 -6.6231034 42.40733735 -6.62533849 35.66311926 C-6.62664562 32.08994384 -6.62973158 28.5167894 -6.63698006 24.94362068 C-6.64499372 20.96118899 -6.64524114 16.97877809 -6.64477539 12.99633789 C-6.64837067 11.80303864 -6.65196594 10.60973938 -6.65567017 9.38027954 C-6.6542955 8.30189316 -6.65292084 7.22350677 -6.65150452 6.11244202 C-6.65242631 5.16944779 -6.6533481 4.22645357 -6.65429783 3.25488377 C-6.40699965 -1.0099974 -3.65004804 0.00397485 0 0 Z " fill="#002641" transform="translate(181.53125,643.8671875)"/>
<path d="M0 0 C0 5.61 0 11.22 0 17 C-7.125 17.25 -7.125 17.25 -9.33251953 17.29785156 C-14.30581424 17.55413743 -17.21422622 18.81775537 -21 22 C-23.87503541 25.6964741 -24.43323353 28.68485027 -24.6875 33.3125 C-24.75324219 34.38113281 -24.81898438 35.44976563 -24.88671875 36.55078125 C-24.92410156 37.35902344 -24.96148438 38.16726563 -25 39 C-24.3387915 38.99476318 -23.67758301 38.98952637 -22.99633789 38.98413086 C-20.01840149 38.96342344 -17.04048018 38.95035988 -14.0625 38.9375 C-12.50112305 38.92493164 -12.50112305 38.92493164 -10.90820312 38.91210938 C-9.91884766 38.90888672 -8.92949219 38.90566406 -7.91015625 38.90234375 C-6.99371338 38.89710693 -6.07727051 38.89187012 -5.13305664 38.88647461 C-3 39 -3 39 -2 40 C-1.90139869 41.40348735 -1.86921063 42.81180477 -1.8671875 44.21875 C-1.86589844 45.06824219 -1.86460937 45.91773438 -1.86328125 46.79296875 C-1.86714844 47.68628906 -1.87101563 48.57960938 -1.875 49.5 C-1.87113281 50.39332031 -1.86726562 51.28664063 -1.86328125 52.20703125 C-1.86457031 53.05652344 -1.86585938 53.90601563 -1.8671875 54.78125 C-1.86831543 55.56564453 -1.86944336 56.35003906 -1.87060547 57.15820312 C-2 59 -2 59 -3 60 C-4.63472882 60.08700342 -6.27314055 60.10701063 -7.91015625 60.09765625 C-8.89951172 60.09443359 -9.88886719 60.09121094 -10.90820312 60.08789062 C-11.94912109 60.07951172 -12.99003906 60.07113281 -14.0625 60.0625 C-15.10728516 60.05798828 -16.15207031 60.05347656 -17.22851562 60.04882812 C-19.8190666 60.03699913 -22.40950559 60.02051689 -25 60 C-24.99777939 60.91232895 -24.99555878 61.8246579 -24.99327087 62.76463318 C-24.97327072 71.34383277 -24.95802728 79.92302458 -24.94818783 88.50224209 C-24.94295931 92.91337004 -24.93586223 97.3244788 -24.92456055 101.7355957 C-24.91373056 105.98901115 -24.90772293 110.24240809 -24.90512276 114.49583626 C-24.90326871 116.12221633 -24.89964848 117.74859534 -24.89426994 119.37496758 C-24.88705802 121.64510193 -24.88600912 123.91515885 -24.88647461 126.18530273 C-24.884254 127.47991928 -24.88203339 128.77453583 -24.87974548 130.10838318 C-25 133 -25 133 -26 134 C-27.76859193 134.09946453 -29.54111451 134.13080217 -31.3125 134.1328125 C-32.38757813 134.13410156 -33.46265625 134.13539063 -34.5703125 134.13671875 C-35.70210937 134.13285156 -36.83390625 134.12898437 -38 134.125 C-39.69769531 134.13080078 -39.69769531 134.13080078 -41.4296875 134.13671875 C-42.50476563 134.13542969 -43.57984375 134.13414062 -44.6875 134.1328125 C-46.17830078 134.13112061 -46.17830078 134.13112061 -47.69921875 134.12939453 C-50 134 -50 134 -51 133 C-51.09439978 130.73008113 -51.11742226 128.45718033 -51.11352539 126.18530273 C-51.11367142 125.47314606 -51.11381744 124.76098938 -51.1139679 124.0272522 C-51.1132687 121.66266888 -51.10547606 119.29816339 -51.09765625 116.93359375 C-51.09579209 115.29834537 -51.09436818 113.66309643 -51.09336853 112.02784729 C-51.08954318 107.71565215 -51.07971275 103.40349048 -51.06866455 99.09130859 C-51.0584508 94.69434054 -51.05387099 90.29736711 -51.04882812 85.90039062 C-51.03809049 77.26691169 -51.02101387 68.63346 -51 60 C-52.60681641 60.01740234 -52.60681641 60.01740234 -54.24609375 60.03515625 C-55.64322743 60.04453299 -57.04036299 60.05363331 -58.4375 60.0625 C-59.14455078 60.07087891 -59.85160156 60.07925781 -60.58007812 60.08789062 C-62.38693559 60.09653588 -64.19387603 60.05220011 -66 60 C-67 59 -67 59 -67.11352539 57.05053711 C-67.10567017 55.8015564 -67.10567017 55.8015564 -67.09765625 54.52734375 C-67.09443359 53.62822266 -67.09121094 52.72910156 -67.08789062 51.80273438 C-67.07951172 50.85720703 -67.07113281 49.91167969 -67.0625 48.9375 C-67.05798828 47.98810547 -67.05347656 47.03871094 -67.04882812 46.06054688 C-67.03700128 43.70700469 -67.01906521 41.35349468 -67 39 C-61.72 39 -56.44 39 -51 39 C-51.103125 36.7725 -51.20625 34.545 -51.3125 32.25 C-51.4511571 22.69517053 -48.89396241 14.75213755 -42.375 7.5625 C-30.67450907 -3.13509171 -14.66660402 -4.11694148 0 0 Z " fill="#002541" transform="translate(750,639)"/>
<path d="M0 0 C2.60547568 2.44923904 2.57490197 3.05323409 2.73828125 6.49609375 C2.71437043 8.23361298 2.66388355 9.97092557 2.58984375 11.70703125 C2.57566406 12.59132813 2.56148437 13.475625 2.546875 14.38671875 C2.39703321 20.89984179 2.39703321 20.89984179 1.21484375 22.08203125 C-0.67561347 22.29512966 -2.56695581 22.50242205 -4.46142578 22.67626953 C-15.42984249 23.70650325 -23.02097735 25.23952064 -30.375 33.984375 C-33.15253226 38.11605041 -34.03580358 41.75396249 -34.10400391 46.69848633 C-34.1238736 47.79925003 -34.14374329 48.90001373 -34.16421509 50.03413391 C-34.1757663 51.21138535 -34.1873175 52.38863678 -34.19921875 53.6015625 C-34.2185849 54.81527023 -34.23795105 56.02897797 -34.25790405 57.27946472 C-34.31762196 61.15108236 -34.3640548 65.02272986 -34.41015625 68.89453125 C-34.44834313 71.52149725 -34.48739527 74.14845082 -34.52734375 76.77539062 C-34.62331727 83.2108271 -34.70838778 89.64633857 -34.78515625 96.08203125 C-38.93097512 96.11089876 -43.07676841 96.12878452 -47.22265625 96.14453125 C-48.99866211 96.15709961 -48.99866211 96.15709961 -50.81054688 96.16992188 C-51.93525391 96.17314453 -53.05996094 96.17636719 -54.21875 96.1796875 C-55.7819397 96.18754272 -55.7819397 96.18754272 -57.37670898 96.19555664 C-59.78515625 96.08203125 -59.78515625 96.08203125 -60.78515625 95.08203125 C-60.88573868 92.16545496 -60.92130836 89.27252179 -60.91455078 86.35546875 C-60.9163031 85.44009338 -60.91805542 84.52471802 -60.91986084 83.581604 C-60.92428086 80.54006076 -60.92134084 77.49857514 -60.91796875 74.45703125 C-60.91864175 72.35335275 -60.91961173 70.24967433 -60.92086792 68.14599609 C-60.9223451 63.73078676 -60.9201897 59.31559762 -60.91552734 54.90039062 C-60.90983005 49.22710564 -60.91310895 43.55386796 -60.91909981 37.88058472 C-60.92270489 33.53474569 -60.92156708 29.18891797 -60.91897202 24.84307861 C-60.9183026 22.75058995 -60.91913168 20.65810028 -60.92145157 18.56561279 C-60.92397723 15.64657859 -60.92013873 12.72762213 -60.91455078 9.80859375 C-60.91657501 8.93479065 -60.91859924 8.06098755 -60.92068481 7.16070557 C-60.89941861 1.19629361 -60.89941861 1.19629361 -59.78515625 0.08203125 C-58.1743188 -0.01716055 -56.55919981 -0.04876695 -54.9453125 -0.05078125 C-53.96498047 -0.05207031 -52.98464844 -0.05335938 -51.97460938 -0.0546875 C-50.42676758 -0.04888672 -50.42676758 -0.04888672 -48.84765625 -0.04296875 C-47.81962891 -0.04683594 -46.79160156 -0.05070313 -45.73242188 -0.0546875 C-44.25999023 -0.05275391 -44.25999023 -0.05275391 -42.7578125 -0.05078125 C-41.40055054 -0.04908936 -41.40055054 -0.04908936 -40.01586914 -0.04736328 C-37.78515625 0.08203125 -37.78515625 0.08203125 -35.78515625 1.08203125 C-35.37109375 4.0234375 -35.37109375 4.0234375 -35.16015625 7.64453125 C-35.08539063 8.84207031 -35.010625 10.03960938 -34.93359375 11.2734375 C-34.88460938 12.20027344 -34.835625 13.12710938 -34.78515625 14.08203125 C-34.30046875 13.47875 -33.81578125 12.87546875 -33.31640625 12.25390625 C-28.92152627 7.01385705 -25.18912574 3.5171541 -18.78515625 1.08203125 C-17.83640625 0.66953125 -16.88765625 0.25703125 -15.91015625 -0.16796875 C-10.49554502 -1.46747545 -5.32392017 -1.75472825 0 0 Z " fill="#042943" transform="translate(522.78515625,676.91796875)"/>
<path d="M0 0 C4.14581887 -0.02886751 8.29161216 -0.04675327 12.4375 -0.0625 C14.21350586 -0.07506836 14.21350586 -0.07506836 16.02539062 -0.08789062 C17.15009766 -0.09111328 18.27480469 -0.09433594 19.43359375 -0.09765625 C20.47572021 -0.10289307 21.51784668 -0.10812988 22.59155273 -0.11352539 C25 0 25 0 26 1 C26.10058243 3.91657629 26.13615211 6.80950946 26.12939453 9.7265625 C26.13114685 10.64193787 26.13289917 11.55731323 26.13470459 12.50042725 C26.13912461 15.54197049 26.13618459 18.58345611 26.1328125 21.625 C26.1334855 23.7286785 26.13445548 25.83235692 26.13571167 27.93603516 C26.13718885 32.35124449 26.13503345 36.76643363 26.13037109 41.18164062 C26.1246738 46.85492561 26.1279527 52.52816329 26.13394356 58.20144653 C26.13754864 62.54728556 26.13641083 66.89311328 26.13381577 71.23895264 C26.13314635 73.3314413 26.13397543 75.42393097 26.13629532 77.51641846 C26.13882098 80.43545266 26.13498248 83.35440912 26.12939453 86.2734375 C26.13141876 87.1472406 26.13344299 88.0210437 26.13552856 88.92132568 C26.11426236 94.88573764 26.11426236 94.88573764 25 96 C23.23140807 96.09946453 21.45888549 96.13080217 19.6875 96.1328125 C18.61242187 96.13410156 17.53734375 96.13539063 16.4296875 96.13671875 C15.29789063 96.13285156 14.16609375 96.12898437 13 96.125 C11.86820313 96.12886719 10.73640625 96.13273438 9.5703125 96.13671875 C8.49523437 96.13542969 7.42015625 96.13414062 6.3125 96.1328125 C5.31863281 96.13168457 4.32476563 96.13055664 3.30078125 96.12939453 C1 96 1 96 0 95 C-0.09526806 92.04753646 -0.12552452 89.11851579 -0.11352539 86.16577148 C-0.11367142 85.23903625 -0.11381744 84.31230103 -0.1139679 83.35748291 C-0.11326838 80.27866313 -0.10547421 77.19990303 -0.09765625 74.12109375 C-0.09579221 71.99259982 -0.09436824 69.86410547 -0.09336853 67.73561096 C-0.08954228 62.1213768 -0.07971108 56.50716832 -0.06866455 50.89294434 C-0.05845273 45.16886747 -0.0538714 39.44478647 -0.04882812 33.72070312 C-0.03808891 22.48045744 -0.0210112 11.24023085 0 0 Z " fill="#032843" transform="translate(646,677)"/>
<path d="M0 0 C1.06831055 0.01450195 1.06831055 0.01450195 2.15820312 0.02929688 C7.01503738 0.13075663 11.75254718 0.64550542 16.5625 1.3125 C17.17920236 11.89922377 17.17920236 11.89922377 15.0625 16.75 C9.26521025 22.69222199 2.36253872 26.29381035 -6 26.625 C-10.93189499 26.50066651 -13.64622111 25.03980464 -17.1875 21.625 C-19.00225879 18.26769624 -19.65612676 15.08557481 -19.4375 11.3125 C-17.88563917 6.2252741 -15.12375589 3.65864643 -10.43505859 1.11083984 C-6.97545046 -0.27181948 -3.67562297 -0.14887762 0 0 Z " fill="#F7F5F0" transform="translate(403.4375,731.6875)"/>
<path d="M0 0 C4.91772725 2.85696536 7.91729575 6.17985874 10.67578125 11.12890625 C11.33578125 14.42890625 11.99578125 17.72890625 12.67578125 21.12890625 C-0.85421875 21.12890625 -14.38421875 21.12890625 -28.32421875 21.12890625 C-27.25655935 12.58763108 -25.64984567 7.78945654 -19.19921875 2.19140625 C-13.67628563 -1.77069794 -6.39762161 -2.39776407 0 0 Z " fill="#F7F5F0" transform="translate(314.32421875,694.87109375)"/>
<path d="M0 0 C3.35550601 1.56590281 5.14778952 3.87663165 7.375 6.8125 C8.77017905 11.69562667 8.5219682 15.68265169 6.6875 20.3125 C4.38374755 23.98143909 3.13771537 25.62076154 -1 27 C-12.40598235 28.15211943 -12.40598235 28.15211943 -16.625 24.8125 C-20.43321334 20.30277367 -21.43033775 16.96587535 -21.25 10.9921875 C-20.85074005 7.81058478 -19.78186343 5.64207336 -18 3 C-12.44260139 -1.11404596 -6.65617025 -0.90309848 0 0 Z " fill="#022540" transform="translate(666,638)"/>
<path d="M0 0 C1.98 0 3.96 0 6 0 C6 0.66 6 1.32 6 2 C4.68 2 3.36 2 2 2 C2 48.2 2 94.4 2 142 C5.3 142.33 8.6 142.66 12 143 C12 143.33 12 143.66 12 144 C8.04 144 4.08 144 0 144 C0 96.48 0 48.96 0 0 Z " fill="#FCFCFB" transform="translate(351,398)"/>
<path d="M0 0 C0 47.52 0 95.04 0 144 C-1.65 144 -3.3 144 -5 144 C-4.01 143.01 -4.01 143.01 -3 142 C-2.68672398 140.00824987 -2.68672398 140.00824987 -2.7215271 137.68922424 C-2.71036362 136.78310898 -2.69920013 135.87699371 -2.68769836 134.94342041 C-2.68553818 133.94574646 -2.68337799 132.94807251 -2.68115234 131.92016602 C-2.66608391 130.34618294 -2.66608391 130.34618294 -2.65071106 128.74040222 C-2.61965395 125.24490919 -2.60275525 121.74949456 -2.5859375 118.25390625 C-2.56720872 115.8103725 -2.54763406 113.3668451 -2.5272522 110.92332458 C-2.47571738 104.45476147 -2.43626734 97.98617657 -2.39910889 91.51751709 C-2.359629 85.04091677 -2.30799441 78.56441515 -2.2578125 72.08789062 C-2.12466523 54.4138357 -2.12466523 54.4138357 -2.03289795 36.73953247 C-2.01378984 31.95282886 -1.97166346 27.16680664 -1.92071533 22.38034058 C-1.90210278 19.89801235 -1.88376386 17.41568205 -1.86572266 14.93334961 C-1.84952063 13.76672318 -1.8333186 12.60009676 -1.8166256 11.39811802 C-1.81096392 10.32624209 -1.80530224 9.25436617 -1.79946899 8.15000916 C-1.78994013 7.20160125 -1.78041126 6.25319334 -1.77059364 5.2760458 C-1.77768049 2.80056549 -1.77768049 2.80056549 -4 1 C-2 0 -2 0 0 0 Z " fill="#FDFDFA" transform="translate(672,398)"/>
<path d="M0 0 C0.66 0 1.32 0 2 0 C2.33 30.03 2.66 60.06 3 91 C1.515 91.495 1.515 91.495 0 92 C0 61.64 0 31.28 0 0 Z " fill="#FDFDFB" transform="translate(521,502)"/>
<path d="M0 0 C0.33 0 0.66 0 1 0 C1 33.99 1 67.98 1 103 C5.95 103 10.9 103 16 103 C19.04269055 103.05681905 22.08009203 103.12208947 25.12109375 103.21875 C25.87673111 103.24094604 26.63236847 103.26314209 27.41090393 103.28601074 C29.75317007 103.35527371 32.09533024 103.42755925 34.4375 103.5 C36.05533246 103.54838074 37.673171 103.59655885 39.29101562 103.64453125 C43.19408405 103.76069567 47.09706112 103.87956463 51 104 C51 104.33 51 104.66 51 105 C33.84 105 16.68 105 -1 105 C-0.67 70.35 -0.34 35.7 0 0 Z " fill="#E7EBED" transform="translate(203,646)"/>
<path d="M0 0 C0.33 0 0.66 0 1 0 C1.84942326 4.43738713 2.16329619 8.67106952 2.1875 13.1875 C2.20167969 14.39792969 2.21585937 15.60835937 2.23046875 16.85546875 C2 20 2 20 0 23 C-3.1373619 24.18886319 -6.31047691 24.17063492 -9.63891602 24.25292969 C-10.77011368 24.28255798 -11.90131134 24.31218628 -13.06678772 24.3427124 C-14.28353683 24.36883606 -15.50028595 24.39495972 -16.75390625 24.421875 C-18.63250587 24.46371918 -18.63250587 24.46371918 -20.54905701 24.50640869 C-23.19601982 24.56278035 -25.84292488 24.61671868 -28.48999023 24.66748047 C-31.88215317 24.73358008 -35.27359097 24.81819392 -38.66522312 24.9070549 C-41.9028513 24.98776769 -45.14087903 25.04709748 -48.37890625 25.109375 C-49.5976796 25.14359558 -50.81645294 25.17781616 -52.07215881 25.21307373 C-53.76422707 25.23860321 -53.76422707 25.23860321 -55.49047852 25.26464844 C-56.98128685 25.29676422 -56.98128685 25.29676422 -58.50221252 25.32952881 C-61 25 -61 25 -64 22 C-43.21 21.67 -22.42 21.34 -1 21 C-0.67 14.07 -0.34 7.14 0 0 Z " fill="#FCFDFB" transform="translate(352,712)"/>
<path d="M0 0 C0.33 0 0.66 0 1 0 C1.02685938 2.14576637 1.04633088 4.29162645 1.0625 6.4375 C1.07410156 7.63246094 1.08570313 8.82742188 1.09765625 10.05859375 C1 13 1 13 0 14 C-2.02494231 14.09409479 -4.0531987 14.11743122 -6.08032227 14.11352539 C-8.03223228 14.11341209 -8.03223228 14.11341209 -10.02357483 14.11329651 C-11.45451902 14.10818909 -12.88546282 14.10297308 -14.31640625 14.09765625 C-15.7722926 14.09579203 -17.22817957 14.09436815 -18.68406677 14.09336853 C-22.52279379 14.08954365 -26.36148319 14.07971364 -30.20019531 14.06866455 C-34.11457816 14.05844978 -38.02896706 14.05387077 -41.94335938 14.04882812 C-49.62892343 14.03809134 -57.31445645 14.02101529 -65 14 C-65.33 13.34 -65.66 12.68 -66 12 C-44.55 12 -23.1 12 -1 12 C-1 8.37 -1 4.74 -1 1 C-0.67 0.67 -0.34 0.34 0 0 Z " fill="#000E2E" transform="translate(351,720)"/>
<path d="M0 0 C7.59 0 15.18 0 23 0 C22.67 0.66 22.34 1.32 22 2 C15.4 2 8.8 2 2 2 C2.02320313 3.55332031 2.04640625 5.10664062 2.0703125 6.70703125 C2.08906966 8.7421827 2.10726991 10.77733934 2.125 12.8125 C2.14175781 13.83666016 2.15851562 14.86082031 2.17578125 15.91601562 C2.18222656 16.89892578 2.18867187 17.88183594 2.1953125 18.89453125 C2.20578613 19.80050049 2.21625977 20.70646973 2.22705078 21.63989258 C2 24 2 24 0 27 C0 18.09 0 9.18 0 0 Z " fill="#FCFDFB" transform="translate(725,699)"/>
<path d="M0 0 C2 3 2 3 2 5 C-11.53 5 -25.06 5 -39 5 C-38.67 4.34 -38.34 3.68 -38 3 C-25.79 2.67 -13.58 2.34 -1 2 C-0.67 1.34 -0.34 0.68 0 0 Z " fill="#FDFEFC" transform="translate(325,711)"/>
<path d="M0 0 C0.97453125 0.00451172 1.9490625 0.00902344 2.953125 0.01367188 C5.34381434 0.02539094 7.7343744 0.04179781 10.125 0.0625 C10.125 0.3925 10.125 0.7225 10.125 1.0625 C9.10684204 1.11410278 9.10684204 1.11410278 8.06811523 1.16674805 C-6.58478149 1.96667343 -19.96612826 2.84169661 -33.14453125 9.78515625 C-34.04558594 10.20667969 -34.94664062 10.62820313 -35.875 11.0625 C-36.535 10.7325 -37.195 10.4025 -37.875 10.0625 C-33.125 7.0625 -33.125 7.0625 -30.875 7.0625 C-30.545 6.4025 -30.215 5.7425 -29.875 5.0625 C-25.50195131 2.91884868 -21.73140694 1.68246684 -16.875 1.0625 C-16.04871094 0.89105469 -15.22242188 0.71960938 -14.37109375 0.54296875 C-9.56914097 -0.11696443 -4.84013394 -0.04262991 0 0 Z " fill="#0A1A53" transform="translate(511.875,307.9375)"/>
<path d="M0 0 C1.93746094 -0.00773438 1.93746094 -0.00773438 3.9140625 -0.015625 C7.375 0.25 7.375 0.25 11.375 2.25 C2.465 2.91 -6.445 3.57 -15.625 4.25 C-11.31002555 -0.06497445 -5.81917613 -0.02332335 0 0 Z " fill="#0B1D33" transform="translate(733.625,636.75)"/>
<path d="M0 0 C3.43595166 1.52708963 6.11912454 3.59927045 9 6 C9.66 5.34 10.32 4.68 11 4 C11.99 4.99 12.98 5.98 14 7 C13.01 8.32 12.02 9.64 11 11 C7.584241 9.55661511 5.63973737 7.75105832 3.25 4.9375 C2.63640625 4.22464844 2.0228125 3.51179688 1.390625 2.77734375 C0 1 0 1 0 0 Z " fill="#EA6E08" transform="translate(502,452)"/>
<path d="M0 0 C1.8125 0.1875 1.8125 0.1875 4 1 C4.4125 1.721875 4.825 2.44375 5.25 3.1875 C7.43508611 6.69924553 10.10614904 9.09408791 13.1875 11.8125 C14.02571289 12.56563477 14.02571289 12.56563477 14.88085938 13.33398438 C16.24883954 14.56165889 17.62372916 15.7816269 19 17 C18.34 17.66 17.68 18.32 17 19 C14.15862758 16.21641519 11.32831845 13.42184273 8.5 10.625 C7.68917969 9.8309375 6.87835938 9.036875 6.04296875 8.21875 C4.89248047 7.07792969 4.89248047 7.07792969 3.71875 5.9140625 C3.00654297 5.2123291 2.29433594 4.5105957 1.56054688 3.78759766 C0 2 0 2 0 0 Z " fill="#EA710A" transform="translate(464,415)"/>
<path d="M0 0 C0.82273185 2.36734455 1.10990889 3.64262754 0.36328125 6.0703125 C0.01652344 6.74835938 -0.33023438 7.42640625 -0.6875 8.125 C-1.02136719 8.80820312 -1.35523438 9.49140625 -1.69921875 10.1953125 C-3.2346767 12.3255875 -4.64418899 12.92264741 -7 14 C-8.09166275 15.93330603 -8.09166275 15.93330603 -9 18 C-10.625 19.75 -10.625 19.75 -12 21 C-12.66 20.67 -13.32 20.34 -14 20 C-13.49210938 19.47792969 -12.98421875 18.95585937 -12.4609375 18.41796875 C-7.16203209 12.75191072 -3.42750368 6.94588815 0 0 Z " fill="#0F1E4C" transform="translate(573,396)"/>
<path d="M0 0 C0.66 0.33 1.32 0.66 2 1 C2.625 3.5625 2.625 3.5625 3 6 C5.31 5.34 7.62 4.68 10 4 C10 4.66 10 5.32 10 6 C8.3767313 6.6708712 6.75132422 7.33657029 5.125 8 C3.76761719 8.556875 3.76761719 8.556875 2.3828125 9.125 C0 10 0 10 -2 10 C-1.34 6.7 -0.68 3.4 0 0 Z " fill="#E9ECEC" transform="translate(601,388)"/>
<path d="M0 0 C0.33 0 0.66 0 1 0 C1.50612064 2.8740422 2.00506541 5.74902873 2.5 8.625 C2.64308594 9.43324219 2.78617187 10.24148438 2.93359375 11.07421875 C3.67876251 15.43877864 4.17272306 19.55238129 4 24 C1.92329908 22.31011183 1.07665372 21.40213987 0.56762695 18.73168945 C0.54144287 17.86761475 0.51525879 17.00354004 0.48828125 16.11328125 C0.45283203 15.17548828 0.41738281 14.23769531 0.38085938 13.27148438 C0.35830078 12.29501953 0.33574219 11.31855469 0.3125 10.3125 C0.27833984 9.32443359 0.24417969 8.33636719 0.20898438 7.31835938 C0.12649462 4.87901947 0.05734932 2.44003937 0 0 Z " fill="#0B1B50" transform="translate(443,368)"/>
<path d="M0 0 C4.95 0 9.9 0 15 0 C15 0.33 15 0.66 15 1 C13.02 1.33 11.04 1.66 9 2 C9 2.33 9 2.66 9 3 C6.36 3 3.72 3 1 3 C0.67 2.01 0.34 1.02 0 0 Z " fill="#0B2D49" transform="translate(766,806)"/>
<path d="M0 0 C0.33 0 0.66 0 1 0 C1 4.29 1 8.58 1 13 C0.01 13.33 -0.98 13.66 -2 14 C-1.85970581 11.8537974 -1.71261836 9.70803782 -1.5625 7.5625 C-1.48128906 6.36753906 -1.40007812 5.17257812 -1.31640625 3.94140625 C-1 1 -1 1 0 0 Z " fill="#06132E" transform="translate(351,720)"/>
<path d="M0 0 C4.11018964 3.35973367 7.94640442 6.60282237 11 11 C11 11.66 11 12.32 11 13 C10.34 13 9.68 13 9 13 C7.6328125 11.390625 7.6328125 11.390625 6.125 9.25 C3.94268803 6.23327463 1.74643258 3.53516854 -1 1 C-0.67 0.67 -0.34 0.34 0 0 Z " fill="#EFF2F2" transform="translate(335,682)"/>
<path d="M0 0 C0.33 0 0.66 0 1 0 C1.433125 1.8253125 1.433125 1.8253125 1.875 3.6875 C2.67835792 6.91814648 3.66265409 9.94320935 5 13 C4.34 13 3.68 13 3 13 C-0.01776222 9.46490711 -1.05404038 7.83762592 -0.75 3.125 C-0.5025 2.09375 -0.255 1.0625 0 0 Z " fill="#ECEFEF" transform="translate(586,305)"/>
<path d="M0 0 C1.2380014 3.57644848 0.74926071 6.33694766 0 10 C-0.66 10 -1.32 10 -2 10 C-2.33 7.36 -2.66 4.72 -3 2 C-2.34 2 -1.68 2 -1 2 C-0.67 1.34 -0.34 0.68 0 0 Z " fill="#E6ECEC" transform="translate(803,735)"/>
<path d="M0 0 C0.78890625 0.22042969 1.5778125 0.44085937 2.390625 0.66796875 C3.18984375 0.88066406 3.9890625 1.09335937 4.8125 1.3125 C5.71742188 1.58126953 5.71742188 1.58126953 6.640625 1.85546875 C6.640625 2.18546875 6.640625 2.51546875 6.640625 2.85546875 C2.350625 2.85546875 -1.939375 2.85546875 -6.359375 2.85546875 C-2.359375 -0.14453125 -2.359375 -0.14453125 0 0 Z " fill="#FCFCFC" transform="translate(515.359375,673.14453125)"/>
<path d="M0 0 C2 0 2 0 3.69140625 1.6796875 C4.30886719 2.40414063 4.92632812 3.12859375 5.5625 3.875 C6.18253906 4.59429687 6.80257813 5.31359375 7.44140625 6.0546875 C9 8 9 8 10 10 C6.4628562 9.43867066 5.00738321 8.30442253 2.75 5.5625 C1.96882813 4.63630859 1.96882813 4.63630859 1.171875 3.69140625 C0 2 0 2 0 0 Z " fill="#E9F0F0" transform="translate(443,429)"/>
<path d="M0 0 C0.66 0.33 1.32 0.66 2 1 C-6.261959 6.74031891 -6.261959 6.74031891 -11 6 C-7.57874946 3.12614955 -4.16111563 1.54115394 0 0 Z " fill="#E4E8EA" transform="translate(596,418)"/>
<path d="M0 0 C0.99 0.495 0.99 0.495 2 1 C2 1.66 2 2.32 2 3 C2.99 3.33 3.98 3.66 5 4 C5.33 6.64 5.66 9.28 6 12 C3.25207517 8.59780735 0 4.51535412 0 0 Z " fill="#091A4E" transform="translate(571,340)"/>
<path d="M0 0 C-3.732388 3.57011026 -8.0949989 4.10913442 -13 5 C-11.5977422 2.1954844 -9.93929378 1.9557882 -7.0625 0.8125 C-6.16660156 0.44769531 -5.27070313 0.08289063 -4.34765625 -0.29296875 C-2 -1 -2 -1 0 0 Z " fill="#0E182D" transform="translate(474,227)"/>
<path d="M0 0 C0.33 0 0.66 0 1 0 C1 2.31 1 4.62 1 7 C1.99 6.67 2.98 6.34 4 6 C2.25 10.875 2.25 10.875 0 12 C0 8.04 0 4.08 0 0 Z " fill="#BEC5C8" transform="translate(487,680)"/>
<path d="M0 0 C0.33 1.32 0.66 2.64 1 4 C-0.8125 5.5625 -0.8125 5.5625 -3 7 C-3.99 6.67 -4.98 6.34 -6 6 C-4.02 4.02 -2.04 2.04 0 0 Z " fill="#192048" transform="translate(558,417)"/>
<path d="M0 0 C0.66 0.99 1.32 1.98 2 3 C1.67 3.99 1.34 4.98 1 6 C0.46375 5.360625 -0.0725 4.72125 -0.625 4.0625 C-3.44367193 1.61470596 -5.33860732 1.33285388 -9 1 C-5.68199515 -1.08911416 -3.72082137 -1.27291258 0 0 Z " fill="#E1E7E8" transform="translate(688,378)"/>
<path d="M0 0 C2 1 2 1 3.125 3.1875 C4.08328236 6.26769331 4.14915816 8.79309948 4 12 C2.33167423 9.49751135 1.37618326 7.58850813 0.375 4.8125 C0.11460937 4.09707031 -0.14578125 3.38164063 -0.4140625 2.64453125 C-0.60742188 2.10183594 -0.80078125 1.55914063 -1 1 C-0.67 0.67 -0.34 0.34 0 0 Z " fill="#EAEEEE" transform="translate(778,676)"/>
<path d="M0 0 C0.33 0 0.66 0 1 0 C1 3.3 1 6.6 1 10 C0.01 9.67 -0.98 9.34 -2 9 C-1.125 1.125 -1.125 1.125 0 0 Z " fill="#FDFDFA" transform="translate(644,647)"/>
<path d="M0 0 C0.66 0.33 1.32 0.66 2 1 C-0.64 3.97 -3.28 6.94 -6 10 C-6.66 9.34 -7.32 8.68 -8 8 C-5.36 5.36 -2.72 2.72 0 0 Z " fill="#F87602" transform="translate(465,326)"/>
<path d="M0 0 C3.79588866 0.54226981 5.47211993 2.20127563 8 5 C7.67 5.99 7.34 6.98 7 8 C4.35247996 5.42215154 2.05567935 3.08351902 0 0 Z " fill="#ECEDED" transform="translate(614,681)"/>
<path d="M0 0 C-0.33 0.99 -0.66 1.98 -1 3 C-2.98 3.33 -4.96 3.66 -7 4 C-7 3.01 -7 2.02 -7 1 C-4.50935112 0.31292445 -2.62113708 0 0 0 Z " fill="#E9EBEA" transform="translate(617,569)"/>
<path d="M0 0 C-2.97 1.65 -5.94 3.3 -9 5 C-8.25 2.5625 -8.25 2.5625 -7 0 C-4.07083439 -1.32284898 -3.12177395 -1.04059132 0 0 Z " fill="#EEF0F1" transform="translate(544,580)"/>
</svg>
